<svg width="46" height="36" viewBox="0 0 46 36" fill="none" xmlns="http://www.w3.org/2000/svg">
<path d="M29.3284 25.2125H16.9731V3.01416H29.3284V25.2125Z" fill="#8B8D92"/>
<path d="M17.7724 14.1138C17.7724 9.61473 19.8735 5.59527 23.1622 3.0146C20.7642 1.11905 17.7268 0 14.4381 0C6.65042 0 0.324341 6.32608 0.324341 14.1138C0.324341 21.9015 6.65042 28.2276 14.4381 28.2276C17.7268 28.2276 20.7642 27.1085 23.1622 25.213C19.8735 22.6323 17.7724 18.6128 17.7724 14.1138Z" fill="#BABBBE"/>
<path d="M46.0001 14.1138C46.0001 21.9015 39.674 28.2276 31.8863 28.2276C28.5976 28.2276 25.5602 27.1085 23.1622 25.213C26.4509 22.6323 28.552 18.6128 28.552 14.1138C28.552 9.61473 26.4509 5.59527 23.1622 3.0146C25.5602 1.11905 28.5976 0 31.8863 0C39.674 0 46.0001 6.32608 46.0001 14.1138Z" fill="#74767C"/>
<path d="M33.5078 31.9046C33.6676 31.9046 33.9188 31.9274 34.0787 31.9959L33.8275 32.7724C33.6448 32.7039 33.4849 32.681 33.3251 32.681C32.7998 32.681 32.5257 33.0236 32.5257 33.6402V35.7413H31.7036V31.9959H32.5029V32.4527C32.7313 32.1101 33.051 31.9046 33.5078 31.9046ZM30.4932 32.7267H29.1686V34.4167C29.1686 34.7821 29.3056 35.0333 29.7167 35.0333C29.9222 35.0333 30.1963 34.9648 30.4475 34.8278L30.6759 35.5358C30.4247 35.7185 30.0136 35.8327 29.6482 35.8327C28.689 35.8327 28.3464 35.3074 28.3464 34.4396V32.7267H27.5928V31.9731H28.3464V30.8312H29.1686V31.9731H30.4932V32.7267ZM20.0563 33.526C20.1476 32.9779 20.4674 32.6125 21.0611 32.6125C21.5864 32.6125 21.929 32.9323 22.0203 33.526H20.0563ZM22.8653 33.8686C22.8653 32.7039 22.1345 31.9046 21.084 31.9046C19.9878 31.9046 19.2113 32.7039 19.2113 33.8686C19.2113 35.0562 20.0106 35.8327 21.1297 35.8327C21.7006 35.8327 22.203 35.6956 22.6598 35.3074L22.2487 34.7136C21.929 34.9648 21.5407 35.1018 21.1525 35.1018C20.6272 35.1018 20.1476 34.8506 20.0334 34.1883H22.8197C22.8425 34.0741 22.8653 33.9828 22.8653 33.8686ZM26.4509 32.9551C26.2225 32.8181 25.7657 32.6354 25.2861 32.6354C24.8294 32.6354 24.5782 32.7952 24.5782 33.0693C24.5782 33.3205 24.8522 33.389 25.2176 33.4347L25.6059 33.4804C26.428 33.5946 26.9076 33.9371 26.9076 34.5994C26.9076 35.3074 26.291 35.8327 25.1948 35.8327C24.5782 35.8327 24.0072 35.6728 23.5733 35.3531L23.9615 34.7136C24.2356 34.9191 24.6467 35.1018 25.2176 35.1018C25.7657 35.1018 26.0626 34.942 26.0626 34.6451C26.0626 34.4396 25.8571 34.3254 25.4003 34.2568L25.0121 34.2112C24.1671 34.097 23.7103 33.7087 23.7103 33.115C23.7103 32.3613 24.327 31.9046 25.2633 31.9046C25.8571 31.9046 26.4052 32.0416 26.7934 32.2928L26.4509 32.9551ZM36.4995 32.6582C36.3397 32.6582 36.1798 32.681 36.0428 32.7496C35.9057 32.8181 35.7687 32.8866 35.6774 33.0008C35.586 33.115 35.4947 33.2291 35.4261 33.389C35.3576 33.526 35.3348 33.7087 35.3348 33.8686C35.3348 34.0513 35.3576 34.2112 35.4261 34.3482C35.4947 34.4852 35.5632 34.6223 35.6774 34.7364C35.7915 34.8506 35.9057 34.9191 36.0428 34.9877C36.1798 35.0562 36.3397 35.079 36.4995 35.079C36.6594 35.079 36.8192 35.0562 36.9563 34.9877C37.0933 34.9191 37.2303 34.8506 37.3217 34.7364C37.4359 34.6223 37.5044 34.5081 37.5729 34.3482C37.6414 34.2112 37.6642 34.0285 37.6642 33.8686C37.6642 33.6859 37.6414 33.526 37.5729 33.389C37.5044 33.252 37.4359 33.115 37.3217 33.0008C37.2075 32.8866 37.0933 32.8181 36.9563 32.7496C36.8192 32.7039 36.6594 32.6582 36.4995 32.6582ZM36.4995 31.9046C36.7964 31.9046 37.0705 31.9502 37.2988 32.0644C37.5501 32.1558 37.7556 32.2928 37.9383 32.4755C38.121 32.6582 38.258 32.8637 38.3722 33.0921C38.4636 33.3433 38.5321 33.5946 38.5321 33.8686C38.5321 34.1427 38.4864 34.4167 38.3722 34.6451C38.2809 34.8963 38.121 35.1019 37.9383 35.2617C37.7556 35.4444 37.5501 35.5814 37.2988 35.6728C37.0476 35.7641 36.7736 35.8327 36.4995 35.8327C36.2026 35.8327 35.9286 35.787 35.7002 35.6728C35.449 35.5814 35.2434 35.4444 35.0607 35.2617C34.878 35.079 34.741 34.8735 34.6268 34.6451C34.5355 34.3939 34.4669 34.1427 34.4669 33.8686C34.4669 33.5946 34.5126 33.3205 34.6268 33.0921C34.7182 32.8409 34.878 32.6354 35.0607 32.4755C35.2434 32.2928 35.449 32.1558 35.7002 32.0644C35.9286 31.9502 36.2026 31.9046 36.4995 31.9046ZM15.306 33.8686C15.306 33.2063 15.7399 32.6582 16.4479 32.6582C17.133 32.6582 17.567 33.1835 17.567 33.8686C17.567 34.5537 17.1102 35.0562 16.4479 35.0562C15.7399 35.0562 15.306 34.5309 15.306 33.8686ZM18.3434 33.8686V31.9959H17.5213V32.4527C17.2701 32.1101 16.8818 31.9046 16.3337 31.9046C15.2832 31.9046 14.461 32.7267 14.461 33.8686C14.461 35.0105 15.2832 35.8327 16.3337 35.8327C16.859 35.8327 17.2472 35.6271 17.5213 35.2846V35.7413H18.3434V33.8686ZM13.753 35.7413V33.389C13.753 32.4983 13.1821 31.9046 12.2686 31.9046C11.789 31.9046 11.2865 32.0416 10.944 32.5669C10.6928 32.1558 10.2817 31.9046 9.71074 31.9046C9.32249 31.9046 8.91141 32.0187 8.61452 32.4527V31.9959H7.79236V35.7413H8.61452V33.6631C8.61452 33.0236 8.97993 32.6582 9.52803 32.6582C10.0761 32.6582 10.3502 33.0008 10.3502 33.6402V35.7185H11.1724V33.6402C11.1724 33.0008 11.5606 32.6354 12.0859 32.6354C12.634 32.6354 12.908 32.9779 12.908 33.6174V35.6956H13.753V35.7413Z" fill="#A2A4A7"/>
</svg>
